<svg width="1146" height="2489" viewBox="0 0 1146 2489" fill="none" xmlns="http://www.w3.org/2000/svg">
<path d="M1145.28 2489H567.646V650.133L0.263672 815.904V378.404L1092.3 0.71875H1145.28V2489Z" fill="black"/>
<path d="M1145.28 2489V2549H1205.28V2489H1145.28ZM567.646 2489H507.646V2549H567.646V2489ZM567.646 650.133H627.646V570.094L550.82 592.541L567.646 650.133ZM0.263672 815.904H-59.7363V895.943L17.0903 873.497L0.263672 815.904ZM0.263672 378.404L-19.3477 321.7L-59.7363 335.668V378.404H0.263672ZM1092.3 0.71875V-59.2812H1082.22L1072.69 -55.9857L1092.3 0.71875ZM1145.28 0.71875H1205.28V-59.2812H1145.28V0.71875ZM1145.28 2429H567.646V2549H1145.28V2429ZM627.646 2489V650.133H507.646V2489H627.646ZM550.82 592.541L-16.563 758.312L17.0903 873.497L584.473 707.725L550.82 592.541ZM60.2637 815.904V378.404H-59.7363V815.904H60.2637ZM19.8751 435.109L1111.92 57.4232L1072.69 -55.9857L-19.3477 321.7L19.8751 435.109ZM1092.3 60.7188H1145.28V-59.2812H1092.3V60.7188ZM1085.28 0.71875V2489H1205.28V0.71875H1085.28Z" fill="#B91C1C"/>
</svg>
