<svg width="3204" height="2558" viewBox="0 0 3204 2558" fill="none" xmlns="http://www.w3.org/2000/svg">
<path d="M1145.36 2523H567.719V684.133L0.335938 849.904V412.404L1092.38 34.7188H1145.36V2523ZM3203.38 1506.15C3203.38 1842.25 3127.62 2101.45 2976.09 2283.74C2825.7 2466.03 2613.21 2557.18 2338.64 2557.18C2061.78 2557.18 1847.59 2465.46 1696.06 2282.03C1544.53 2098.6 1468.76 1839.98 1468.76 1506.15V1051.56C1468.76 715.464 1543.96 456.268 1694.35 273.977C1845.88 91.6849 2059.5 0.539062 2335.22 0.539062C2610.93 0.539062 2824.56 92.2546 2976.09 275.686C3127.62 459.117 3203.38 718.312 3203.38 1053.27V1506.15ZM2627.46 978.078C2627.46 799.204 2604.1 665.904 2557.39 578.176C2510.67 489.309 2436.62 444.875 2335.22 444.875C2236.1 444.875 2163.75 485.891 2118.18 567.922C2073.74 649.953 2049.82 774.139 2046.4 940.48V1576.22C2046.4 1761.93 2069.76 1898.08 2116.47 1984.67C2163.18 2070.12 2237.24 2112.84 2338.64 2112.84C2436.62 2112.84 2508.97 2071.26 2555.68 1988.09C2602.39 1903.78 2626.32 1772.19 2627.46 1593.31V978.078Z" fill="black"/>
<path d="M1145.36 2523V2583H1205.36V2523H1145.36ZM567.719 2523H507.719V2583H567.719V2523ZM567.719 684.133H627.719V604.094L550.892 626.541L567.719 684.133ZM0.335938 849.904H-59.6641V929.943L17.1626 907.497L0.335938 849.904ZM0.335938 412.404L-19.2755 355.7L-59.6641 369.668V412.404H0.335938ZM1092.38 34.7188V-25.2812H1082.29L1072.77 -21.9857L1092.38 34.7188ZM1145.36 34.7188H1205.36V-25.2812H1145.36V34.7188ZM1145.36 2463H567.719V2583H1145.36V2463ZM627.719 2523V684.133H507.719V2523H627.719ZM550.892 626.541L-16.4907 792.312L17.1626 907.497L584.545 741.725L550.892 626.541ZM60.3359 849.904V412.404H-59.6641V849.904H60.3359ZM19.9473 469.109L1111.99 91.4232L1072.77 -21.9857L-19.2755 355.7L19.9473 469.109ZM1092.38 94.7188H1145.36V-25.2812H1092.38V94.7188ZM1085.36 34.7188V2523H1205.36V34.7188H1085.36ZM2976.09 2283.74L2929.95 2245.39L2929.88 2245.47L2929.81 2245.56L2976.09 2283.74ZM1696.06 2282.03L1649.8 2320.25L1696.06 2282.03ZM1694.35 273.977L1648.21 235.622L1648.14 235.708L1648.07 235.794L1694.35 273.977ZM2976.09 275.686L2929.83 313.898L2976.09 275.686ZM2557.39 578.176L2504.28 606.093L2504.35 606.234L2504.43 606.375L2557.39 578.176ZM2118.18 567.922L2065.73 538.783L2065.57 539.063L2065.42 539.345L2118.18 567.922ZM2046.4 940.48L1986.41 939.248L1986.4 939.864V940.48H2046.4ZM2116.47 1984.67L2063.66 2013.16L2063.74 2013.3L2063.82 2013.45L2116.47 1984.67ZM2555.68 1988.09L2607.99 2017.47L2608.08 2017.32L2608.16 2017.17L2555.68 1988.09ZM2627.46 1593.31L2687.45 1593.69L2687.46 1593.5V1593.31H2627.46ZM3143.38 1506.15C3143.38 1834 3069.42 2077.6 2929.95 2245.39L3022.23 2322.1C3185.81 2125.31 3263.38 1850.51 3263.38 1506.15H3143.38ZM2929.81 2245.56C2792.72 2411.72 2598.54 2497.18 2338.64 2497.18V2617.18C2627.89 2617.18 2858.67 2520.35 3022.37 2321.93L2929.81 2245.56ZM2338.64 2497.18C2076.41 2497.18 1880.52 2411.12 1742.32 2243.82L1649.8 2320.25C1814.66 2519.81 2047.15 2617.18 2338.64 2617.18V2497.18ZM1742.32 2243.82C1602.66 2074.76 1528.76 1831.58 1528.76 1506.15H1408.76C1408.76 1848.38 1486.4 2122.45 1649.8 2320.25L1742.32 2243.82ZM1528.76 1506.15V1051.56H1408.76V1506.15H1528.76ZM1528.76 1051.56C1528.76 723.623 1602.2 479.961 1740.63 312.16L1648.07 235.794C1485.72 432.575 1408.76 707.305 1408.76 1051.56H1528.76ZM1740.49 312.331C1878.7 146.065 2074.09 60.5391 2335.22 60.5391V-59.4609C2044.91 -59.4609 1813.06 37.3052 1648.21 235.622L1740.49 312.331ZM2335.22 60.5391C2596.21 60.5391 2791.58 146.54 2929.83 313.898L3022.35 237.473C2857.54 37.9696 2625.66 -59.4609 2335.22 -59.4609V60.5391ZM2929.83 313.898C3069.46 482.928 3143.38 726.654 3143.38 1053.27H3263.38C3263.38 709.971 3185.77 435.305 3022.35 237.473L2929.83 313.898ZM3143.38 1053.27V1506.15H3263.38V1053.27H3143.38ZM2687.46 978.078C2687.46 796.071 2664.04 650.823 2610.35 549.976L2504.43 606.375C2544.15 680.984 2567.46 802.338 2567.46 978.078H2687.46ZM2610.5 550.259C2582.87 497.698 2545.58 455.491 2497.68 426.751C2449.81 398.03 2394.88 384.875 2335.22 384.875V504.875C2376.96 504.875 2409.75 513.937 2435.94 529.65C2462.1 545.343 2485.19 569.787 2504.28 606.093L2610.5 550.259ZM2335.22 384.875C2277.28 384.875 2223.81 396.917 2177.03 423.441C2130.07 450.062 2093.17 489.396 2065.73 538.783L2170.63 597.06C2188.76 564.417 2210.82 542.227 2236.21 527.832C2261.77 513.341 2294.04 504.875 2335.22 504.875V384.875ZM2065.42 539.345C2014.14 634.021 1989.9 769.739 1986.41 939.248L2106.39 941.713C2109.74 778.54 2133.35 665.885 2170.94 596.499L2065.42 539.345ZM1986.4 940.48V1576.22H2106.4V940.48H1986.4ZM1986.4 1576.22C1986.4 1764.51 2009.66 1913.06 2063.66 2013.16L2169.27 1956.18C2129.85 1883.1 2106.4 1759.35 2106.4 1576.22H1986.4ZM2063.82 2013.45C2091.71 2064.47 2129.22 2105.17 2177.06 2132.77C2224.77 2160.3 2279.38 2172.84 2338.64 2172.84V2052.84C2296.5 2052.84 2263.37 2044.03 2237.03 2028.83C2210.81 2013.7 2187.94 1990.32 2169.12 1955.89L2063.82 2013.45ZM2338.64 2172.84C2396.28 2172.84 2449.54 2160.54 2496.28 2133.67C2543.11 2106.76 2580.11 2067.11 2607.99 2017.47L2503.36 1958.71C2484.53 1992.24 2462 2014.97 2436.48 2029.64C2410.88 2044.35 2378.98 2052.84 2338.64 2052.84V2172.84ZM2608.16 2017.17C2662.33 1919.39 2686.3 1775.38 2687.45 1593.69L2567.46 1592.93C2566.33 1769 2542.45 1888.17 2503.19 1959.01L2608.16 2017.17ZM2687.46 1593.31V978.078H2567.46V1593.31H2687.46Z" fill="#B91C1C"/>
</svg>
