<svg width="1788" height="2525" viewBox="0 0 1788 2525" fill="none" xmlns="http://www.w3.org/2000/svg">
<path d="M1788 2525H51.6719V2149.02L851.477 1308.2C1048.58 1083.76 1147.13 905.452 1147.13 773.291C1147.13 666.195 1123.77 584.733 1077.06 528.906C1030.35 473.079 962.561 445.166 873.693 445.166C785.965 445.166 714.758 482.764 660.07 557.959C605.383 632.015 578.039 724.87 578.039 836.523H0.402344C0.402344 683.854 38.5697 543.148 114.904 414.404C191.239 284.521 297.196 183.122 432.775 110.205C568.355 37.2884 719.885 0.830078 887.365 0.830078C1156.25 0.830078 1363.03 62.9232 1507.73 187.109C1653.56 311.296 1726.48 489.6 1726.48 722.021C1726.48 820.003 1708.25 915.706 1671.79 1009.13C1635.33 1101.42 1578.36 1198.83 1500.89 1301.37C1424.56 1402.77 1300.94 1538.92 1130.04 1709.81L808.752 2080.66H1788V2525Z" fill="black"/>
<path d="M1788 2525V2585H1848V2525H1788ZM51.6719 2525H-8.32812V2585H51.6719V2525ZM51.6719 2149.02L8.19839 2107.67L-8.32812 2125.04V2149.02H51.6719ZM851.477 1308.2L894.95 1349.56L895.773 1348.69L896.56 1347.79L851.477 1308.2ZM1077.06 528.906L1031.05 567.41L1077.06 528.906ZM660.07 557.959L708.336 593.602L708.466 593.426L708.594 593.249L660.07 557.959ZM578.039 836.523V896.523H638.039V836.523H578.039ZM0.402344 836.523H-59.5977V896.523H0.402344V836.523ZM114.904 414.404L166.514 445.005L166.573 444.905L166.632 444.806L114.904 414.404ZM1507.73 187.109L1468.65 232.639L1468.74 232.715L1468.83 232.79L1507.73 187.109ZM1671.79 1009.13L1727.59 1031.18L1727.64 1031.06L1727.68 1030.94L1671.79 1009.13ZM1500.89 1301.37L1453.02 1265.2L1452.99 1265.24L1452.96 1265.28L1500.89 1301.37ZM1130.04 1709.81L1087.61 1667.39L1086.1 1668.91L1084.69 1670.53L1130.04 1709.81ZM808.752 2080.66L763.404 2041.38L677.385 2140.66H808.752V2080.66ZM1788 2080.66H1848V2020.66H1788V2080.66ZM1788 2465H51.6719V2585H1788V2465ZM111.672 2525V2149.02H-8.32812V2525H111.672ZM95.1454 2190.38L894.95 1349.56L808.003 1266.85L8.19839 2107.67L95.1454 2190.38ZM896.56 1347.79C996.772 1233.68 1073.64 1129.4 1125.73 1035.16C1177.49 941.518 1207.13 853.576 1207.13 773.291H1087.13C1087.13 825.168 1067.5 892.458 1020.7 977.116C974.239 1061.18 903.284 1158.28 806.393 1268.61L896.56 1347.79ZM1207.13 773.291C1207.13 658.558 1182.24 561.107 1123.08 490.403L1031.05 567.41C1065.31 608.359 1087.13 673.831 1087.13 773.291H1207.13ZM1123.08 490.403C1062.47 417.965 976.024 385.166 873.693 385.166V505.166C949.097 505.166 998.233 528.193 1031.05 567.41L1123.08 490.403ZM873.693 385.166C765.46 385.166 676.732 433.039 611.546 522.669L708.594 593.249C752.784 532.489 806.471 505.166 873.693 505.166V385.166ZM611.804 522.316C547.988 608.734 518.039 714.834 518.039 836.523H638.039C638.039 734.906 662.778 655.296 708.336 593.602L611.804 522.316ZM578.039 776.523H0.402344V896.523H578.039V776.523ZM60.4023 836.523C60.4023 694.396 95.7861 564.293 166.514 445.005L63.2942 383.804C-18.6468 522.003 -59.5977 673.312 -59.5977 836.523H60.4023ZM166.632 444.806C237.272 324.612 335.071 230.879 461.195 163.048L404.356 57.3626C259.321 135.364 145.206 244.431 63.1766 384.003L166.632 444.806ZM461.195 163.048C587.284 95.2349 728.911 60.8301 887.365 60.8301V-59.1699C710.859 -59.1699 549.426 -20.6581 404.356 57.3626L461.195 163.048ZM887.365 60.8301C1147.73 60.8301 1338.56 120.987 1468.65 232.639L1546.8 141.579C1387.51 4.85929 1164.76 -59.1699 887.365 -59.1699V60.8301ZM1468.83 232.79C1598.43 343.158 1666.48 503.073 1666.48 722.021H1786.48C1786.48 476.126 1708.69 279.434 1546.63 141.428L1468.83 232.79ZM1666.48 722.021C1666.48 812.363 1649.7 900.679 1615.89 987.318L1727.68 1030.94C1766.79 930.734 1786.48 827.643 1786.48 722.021H1666.48ZM1615.99 987.085C1582.01 1073.09 1528.13 1165.78 1453.02 1265.2L1548.76 1337.54C1628.6 1231.87 1688.65 1129.74 1727.59 1031.18L1615.99 987.085ZM1452.96 1265.28C1379.2 1363.26 1257.96 1497.04 1087.61 1667.39L1172.47 1752.24C1343.92 1580.79 1469.92 1442.27 1548.83 1337.45L1452.96 1265.28ZM1084.69 1670.53L763.404 2041.38L854.1 2119.95L1175.39 1749.1L1084.69 1670.53ZM808.752 2140.66H1788V2020.66H808.752V2140.66ZM1728 2080.66V2525H1848V2080.66H1728Z" fill="#B91C1C"/>
</svg>
