<svg width="1809" height="2560" viewBox="0 0 1809 2560" fill="none" xmlns="http://www.w3.org/2000/svg">
<path d="M599.039 1039.89H870.768C1086.1 1039.89 1193.77 934.505 1193.77 723.73C1193.77 641.699 1168.13 575.049 1116.86 523.779C1065.59 471.37 993.245 445.166 899.82 445.166C823.486 445.166 756.835 467.383 699.869 511.816C644.042 556.25 616.129 611.507 616.129 677.588H40.2012C40.2012 546.566 76.6595 429.785 149.576 327.246C222.493 224.707 323.323 144.954 452.066 87.9883C581.949 29.8828 724.365 0.830078 879.312 0.830078C1156.17 0.830078 1373.78 64.0625 1532.14 190.527C1690.51 316.992 1769.69 490.739 1769.69 711.768C1769.69 818.864 1736.65 920.264 1670.57 1015.97C1605.63 1110.53 1510.5 1187.43 1385.17 1246.68C1517.33 1294.53 1621.01 1367.45 1696.21 1465.43C1771.4 1562.27 1809 1682.47 1809 1826.03C1809 2048.19 1723.55 2225.93 1552.65 2359.23C1381.75 2492.53 1157.31 2559.18 879.312 2559.18C716.389 2559.18 564.859 2528.42 424.723 2466.89C285.725 2404.23 180.338 2318.21 108.561 2208.84C36.7832 2098.32 0.894531 1973 0.894531 1832.86H580.24C580.24 1909.2 611.002 1975.28 672.525 2031.1C734.049 2086.93 809.814 2114.84 899.82 2114.84C1001.22 2114.84 1082.11 2086.93 1142.5 2031.1C1202.88 1974.14 1233.07 1901.79 1233.07 1814.06C1233.07 1688.74 1201.74 1599.87 1139.08 1547.46C1076.42 1495.05 989.827 1468.85 879.312 1468.85H599.039V1039.89Z" fill="black"/>
<path d="M599.039 1039.89V979.893H539.039V1039.89H599.039ZM1116.86 523.779L1073.97 565.737L1074.2 565.973L1074.43 566.206L1116.86 523.779ZM699.869 511.816L662.967 464.506L662.735 464.687L662.504 464.871L699.869 511.816ZM616.129 677.588V737.588H676.129V677.588H616.129ZM40.2012 677.588H-19.7988V737.588H40.2012V677.588ZM452.066 87.9883L476.345 142.857L476.457 142.807L476.568 142.757L452.066 87.9883ZM1532.14 190.527L1494.7 237.412L1532.14 190.527ZM1670.57 1015.97L1621.2 981.875L1621.16 981.938L1621.11 982L1670.57 1015.97ZM1385.17 1246.68L1359.53 1192.44L1229.23 1254.03L1364.75 1303.1L1385.17 1246.68ZM1696.21 1465.43L1648.61 1501.96L1648.71 1502.09L1648.82 1502.23L1696.21 1465.43ZM424.723 2466.89L400.063 2521.59L400.333 2521.71L400.603 2521.83L424.723 2466.89ZM108.561 2208.84L58.2421 2241.52L58.3196 2241.64L58.3977 2241.76L108.561 2208.84ZM0.894531 1832.86V1772.86H-59.1055V1832.86H0.894531ZM580.24 1832.86H640.24V1772.86H580.24V1832.86ZM672.525 2031.1L632.206 2075.54L672.525 2031.1ZM1142.5 2031.1L1183.23 2075.16L1183.45 2074.95L1183.67 2074.75L1142.5 2031.1ZM1139.08 1547.46L1177.57 1501.44L1139.08 1547.46ZM599.039 1468.85H539.039V1528.85H599.039V1468.85ZM599.039 1099.89H870.768V979.893H599.039V1099.89ZM870.768 1099.89C987.364 1099.89 1085.89 1071.36 1154.99 1003.73C1224.32 935.866 1253.77 838.696 1253.77 723.73H1133.77C1133.77 819.54 1109.38 880.451 1071.05 917.974C1032.47 955.73 969.503 979.893 870.768 979.893V1099.89ZM1253.77 723.73C1253.77 628.064 1223.32 545.389 1159.29 481.353L1074.43 566.206C1112.94 604.708 1133.77 655.334 1133.77 723.73H1253.77ZM1159.75 481.822C1094.3 414.92 1004.72 385.166 899.82 385.166V505.166C981.765 505.166 1036.88 527.821 1073.97 565.737L1159.75 481.822ZM899.82 385.166C810.926 385.166 731.099 411.364 662.967 464.506L736.771 559.127C782.572 523.402 836.045 505.166 899.82 505.166V385.166ZM662.504 464.871C593.685 519.646 556.129 591.617 556.129 677.588H676.129C676.129 631.397 694.4 592.854 737.234 558.762L662.504 464.871ZM616.129 617.588H40.2012V737.588H616.129V617.588ZM100.201 677.588C100.201 558.48 133.09 453.962 198.473 362.018L100.679 292.475C20.2286 405.608 -19.7988 534.652 -19.7988 677.588H100.201ZM198.473 362.018C264.419 269.281 356.263 195.991 476.345 142.857L427.788 33.1196C290.383 93.9183 180.566 180.133 100.679 292.475L198.473 362.018ZM476.568 142.757C598.078 88.3976 732.049 60.8301 879.312 60.8301V-59.1699C716.68 -59.1699 565.82 -28.632 427.564 33.2192L476.568 142.757ZM879.312 60.8301C1147.5 60.8301 1350.28 122.079 1494.7 237.412L1569.59 143.642C1397.28 6.04587 1164.83 -59.1699 879.312 -59.1699V60.8301ZM1494.7 237.412C1637.4 351.362 1709.69 507.093 1709.69 711.768H1829.69C1829.69 474.385 1743.62 282.623 1569.59 143.642L1494.7 237.412ZM1709.69 711.768C1709.69 805.631 1680.98 895.291 1621.2 981.875L1719.95 1050.06C1792.32 945.237 1829.69 832.097 1829.69 711.768H1709.69ZM1621.11 982C1563.32 1066.16 1477.26 1136.78 1359.53 1192.44L1410.81 1300.92C1543.73 1238.09 1647.95 1154.9 1720.03 1049.93L1621.11 982ZM1364.75 1303.1C1487.66 1347.6 1581.31 1414.27 1648.61 1501.96L1743.81 1428.9C1660.71 1320.62 1547 1241.46 1405.6 1190.26L1364.75 1303.1ZM1648.82 1502.23C1714.5 1586.81 1749 1693.43 1749 1826.03H1869C1869 1671.51 1828.31 1537.73 1743.6 1428.63L1648.82 1502.23ZM1749 1826.03C1749 2030.25 1671.65 2190.32 1515.75 2311.92L1589.55 2406.54C1775.45 2261.54 1869 2066.14 1869 1826.03H1749ZM1515.75 2311.92C1358.06 2434.92 1147.76 2499.18 879.312 2499.18V2619.18C1166.86 2619.18 1405.45 2550.14 1589.55 2406.54L1515.75 2311.92ZM879.312 2499.18C724.148 2499.18 580.893 2469.93 448.842 2411.96L400.603 2521.83C548.826 2586.91 708.63 2619.18 879.312 2619.18V2499.18ZM449.382 2412.2C319.03 2353.43 223.265 2274.27 158.723 2175.92L58.3977 2241.76C137.411 2362.16 252.421 2455.03 400.063 2521.59L449.382 2412.2ZM158.879 2176.16C93.8278 2076 60.8945 1962.17 60.8945 1832.86H-59.1055C-59.1055 1983.83 -20.2614 2120.65 58.2421 2241.52L158.879 2176.16ZM0.894531 1892.86H580.24V1772.86H0.894531V1892.86ZM520.24 1832.86C520.24 1927.72 559.389 2009.46 632.206 2075.54L712.845 1986.67C662.615 1941.09 640.24 1890.67 640.24 1832.86H520.24ZM632.206 2075.54C705.731 2142.25 796.259 2174.84 899.82 2174.84V2054.84C823.369 2054.84 762.367 2031.61 712.845 1986.67L632.206 2075.54ZM899.82 2174.84C1012.63 2174.84 1109.32 2143.49 1183.23 2075.16L1101.76 1987.05C1054.91 2030.37 989.81 2054.84 899.82 2054.84V2174.84ZM1183.67 2074.75C1256.81 2005.74 1293.07 1917.26 1293.07 1814.06H1173.07C1173.07 1886.32 1148.95 1942.53 1101.32 1987.46L1183.67 2074.75ZM1293.07 1814.06C1293.07 1680.53 1259.81 1570.21 1177.57 1501.44L1100.58 1593.49C1143.68 1629.53 1173.07 1696.94 1173.07 1814.06H1293.07ZM1177.57 1501.44C1100.83 1437.25 998.926 1408.85 879.312 1408.85V1528.85C980.728 1528.85 1052 1552.85 1100.58 1593.49L1177.57 1501.44ZM879.312 1408.85H599.039V1528.85H879.312V1408.85ZM659.039 1468.85V1039.89H539.039V1468.85H659.039Z" fill="#B91C1C"/>
</svg>
