<svg width="1826" height="2489" viewBox="0 0 1826 2489" fill="none" xmlns="http://www.w3.org/2000/svg">
<path d="M1572.67 1516.59H1825.6V1960.92H1572.67V2489H996.74V1960.92H34.582L0.402344 1608.87L996.74 5.8457V0.71875H1572.67V1516.59ZM548.986 1516.59H996.74V750.963L960.852 809.068L548.986 1516.59Z" fill="black"/>
<path d="M1572.67 1516.59H1512.67V1576.59H1572.67V1516.59ZM1825.6 1516.59H1885.6V1456.59H1825.6V1516.59ZM1825.6 1960.92V2020.92H1885.6V1960.92H1825.6ZM1572.67 1960.92V1900.92H1512.67V1960.92H1572.67ZM1572.67 2489V2549H1632.67V2489H1572.67ZM996.74 2489H936.74V2549H996.74V2489ZM996.74 1960.92H1056.74V1900.92H996.74V1960.92ZM34.582 1960.92L-25.1372 1966.72L-19.8748 2020.92H34.582V1960.92ZM0.402344 1608.87L-50.5568 1577.2L-61.2798 1594.45L-59.3169 1614.67L0.402344 1608.87ZM996.74 5.8457L1047.7 37.5186L1056.74 22.9725V5.8457H996.74ZM996.74 0.71875V-59.2812H936.74V0.71875H996.74ZM1572.67 0.71875H1632.67V-59.2812H1572.67V0.71875ZM548.986 1516.59L497.132 1486.4L444.633 1576.59H548.986V1516.59ZM996.74 1516.59V1576.59H1056.74V1516.59H996.74ZM996.74 750.963H1056.74V539.642L945.692 719.433L996.74 750.963ZM960.852 809.068L909.804 777.539L909.392 778.206L908.998 778.883L960.852 809.068ZM1572.67 1576.59H1825.6V1456.59H1572.67V1576.59ZM1765.6 1516.59V1960.92H1885.6V1516.59H1765.6ZM1825.6 1900.92H1572.67V2020.92H1825.6V1900.92ZM1512.67 1960.92V2489H1632.67V1960.92H1512.67ZM1572.67 2429H996.74V2549H1572.67V2429ZM1056.74 2489V1960.92H936.74V2489H1056.74ZM996.74 1900.92H34.582V2020.92H996.74V1900.92ZM94.3012 1955.13L60.1215 1603.08L-59.3169 1614.67L-25.1372 1966.72L94.3012 1955.13ZM51.3614 1640.55L1047.7 37.5186L945.781 -25.8272L-50.5568 1577.2L51.3614 1640.55ZM1056.74 5.8457V0.71875H936.74V5.8457H1056.74ZM996.74 60.7188H1572.67V-59.2812H996.74V60.7188ZM1512.67 0.71875V1516.59H1632.67V0.71875H1512.67ZM548.986 1576.59H996.74V1456.59H548.986V1576.59ZM1056.74 1516.59V750.963H936.74V1516.59H1056.74ZM945.692 719.433L909.804 777.539L1011.9 840.598L1047.79 782.492L945.692 719.433ZM908.998 778.883L497.132 1486.4L600.84 1546.77L1012.71 839.254L908.998 778.883Z" fill="#B91C1C"/>
</svg>
