<svg width="1741" height="2524" viewBox="0 0 1741 2524" fill="none" xmlns="http://www.w3.org/2000/svg">
<path d="M49.8516 1272.2L201.951 0.71875H1656.3V448.473H670.213L613.816 942.369C654.832 918.443 708.38 897.366 774.461 879.137C841.681 860.908 907.192 851.793 970.994 851.793C1218.23 851.793 1407.92 925.279 1540.09 1072.25C1673.39 1218.09 1740.04 1423.16 1740.04 1687.49C1740.04 1846.99 1704.15 1991.69 1632.37 2121.57C1561.73 2250.31 1462.04 2349.43 1333.3 2418.93C1204.56 2488.43 1052.46 2523.18 877 2523.18C720.913 2523.18 574.51 2491.28 437.791 2427.48C301.072 2362.54 193.976 2274.24 116.502 2162.58C39.028 2049.79 0.860677 1922.76 2 1781.48H579.637C585.333 1872.63 614.386 1944.97 666.795 1998.52C719.204 2052.07 788.133 2078.84 873.582 2078.84C1067.27 2078.84 1164.11 1935.29 1164.11 1648.18C1164.11 1382.72 1045.62 1249.99 808.641 1249.99C674.201 1249.99 573.94 1293.28 507.859 1379.87L49.8516 1272.2Z" fill="black"/>
<path d="M49.8516 1272.2L-9.7237 1265.08L-16.0948 1318.34L36.1214 1330.61L49.8516 1272.2ZM201.951 0.71875V-59.2812H148.701L142.376 -6.40786L201.951 0.71875ZM1656.3 0.71875H1716.3V-59.2812H1656.3V0.71875ZM1656.3 448.473V508.473H1716.3V448.473H1656.3ZM670.213 448.473V388.473H616.674L610.6 441.666L670.213 448.473ZM613.816 942.369L554.204 935.562L540.619 1054.53L644.049 994.196L613.816 942.369ZM774.461 879.137L758.757 821.228L758.631 821.262L758.505 821.297L774.461 879.137ZM1540.09 1072.25L1495.47 1112.37L1495.63 1112.55L1495.8 1112.73L1540.09 1072.25ZM1632.37 2121.57L1579.86 2092.55L1579.81 2092.63L1579.77 2092.71L1632.37 2121.57ZM437.791 2427.48L412.048 2481.67L412.232 2481.76L412.418 2481.85L437.791 2427.48ZM116.502 2162.58L67.0449 2196.55L67.1255 2196.67L67.2067 2196.79L116.502 2162.58ZM2 1781.48V1721.48H-57.5181L-57.998 1781L2 1781.48ZM579.637 1781.48L639.52 1777.74L636.004 1721.48H579.637V1781.48ZM666.795 1998.52L709.675 1956.55L666.795 1998.52ZM507.859 1379.87L494.129 1438.28L531.972 1447.17L555.556 1416.27L507.859 1379.87ZM109.427 1279.33L261.526 7.84536L142.376 -6.40786L-9.7237 1265.08L109.427 1279.33ZM201.951 60.7188H1656.3V-59.2812H201.951V60.7188ZM1596.3 0.71875V448.473H1716.3V0.71875H1596.3ZM1656.3 388.473H670.213V508.473H1656.3V388.473ZM610.6 441.666L554.204 935.562L673.429 949.176L729.826 455.28L610.6 441.666ZM644.049 994.196C679.088 973.756 727.33 954.379 790.417 936.976L758.505 821.297C689.43 840.352 630.576 863.131 583.584 890.542L644.049 994.196ZM790.165 937.045C852.73 920.078 912.957 911.793 970.994 911.793V791.793C901.427 791.793 830.632 801.737 758.757 821.228L790.165 937.045ZM970.994 911.793C1205.79 911.793 1377.43 981.103 1495.47 1112.37L1584.7 1032.13C1438.42 869.456 1230.66 791.793 970.994 791.793V911.793ZM1495.8 1112.73C1615.98 1244.22 1680.04 1432.99 1680.04 1687.49H1800.04C1800.04 1413.33 1730.79 1191.95 1584.37 1031.77L1495.8 1112.73ZM1680.04 1687.49C1680.04 1837.62 1646.36 1972.21 1579.86 2092.55L1684.89 2150.59C1761.94 2011.16 1800.04 1856.36 1800.04 1687.49H1680.04ZM1579.77 2092.71C1514.67 2211.36 1423.33 2302.15 1304.8 2366.13L1361.8 2471.73C1500.76 2396.72 1608.8 2289.27 1684.97 2150.43L1579.77 2092.71ZM1304.8 2366.13C1186.4 2430.05 1044.48 2463.18 877 2463.18V2583.18C1060.43 2583.18 1222.71 2546.81 1361.8 2471.73L1304.8 2366.13ZM877 2463.18C729.369 2463.18 591.661 2433.07 463.164 2373.11L412.418 2481.85C557.359 2549.49 712.457 2583.18 877 2583.18V2463.18ZM463.534 2373.28C335.176 2312.31 236.642 2230.48 165.797 2128.38L67.2067 2196.79C151.31 2318 266.969 2412.76 412.048 2481.67L463.534 2373.28ZM165.959 2128.61C95.6825 2026.3 60.9544 1911.37 61.998 1781.96L-57.998 1781C-59.2331 1934.14 -17.6265 2073.28 67.0449 2196.55L165.959 2128.61ZM2 1841.48H579.637V1721.48H2V1841.48ZM519.754 1785.22C526.143 1887.46 559.355 1974.53 623.915 2040.49L709.675 1956.55C669.417 1915.42 644.523 1857.79 639.52 1777.74L519.754 1785.22ZM623.915 2040.49C689.23 2107.22 774.468 2138.84 873.582 2138.84V2018.84C801.797 2018.84 749.178 1996.92 709.675 1956.55L623.915 2040.49ZM873.582 2138.84C987.601 2138.84 1080.18 2095.21 1141.22 2004.73C1199.42 1918.45 1224.11 1796.6 1224.11 1648.18H1104.11C1104.11 1786.87 1080.38 1880.35 1041.74 1937.62C1005.93 1990.7 953.248 2018.84 873.582 2018.84V2138.84ZM1224.11 1648.18C1224.11 1507.77 1192.92 1391.26 1120 1309.58C1045.92 1226.6 938.252 1189.99 808.641 1189.99V1309.99C916.008 1309.99 986.07 1339.74 1030.48 1389.49C1076.05 1440.54 1104.11 1523.12 1104.11 1648.18H1224.11ZM808.641 1189.99C660.358 1189.99 540.252 1238.52 460.162 1343.47L555.556 1416.27C607.629 1348.04 688.043 1309.99 808.641 1309.99V1189.99ZM521.59 1321.46L63.5818 1213.8L36.1214 1330.61L494.129 1438.28L521.59 1321.46Z" fill="#B91C1C"/>
</svg>
