<svg width="1789" height="2560" viewBox="0 0 1789 2560" fill="none" xmlns="http://www.w3.org/2000/svg">
<path d="M1401.79 0.830078V453.711H1376.15C1160.82 453.711 983.654 505.55 844.656 609.229C706.798 711.768 621.919 854.753 590.018 1038.18C719.9 910.579 883.963 846.777 1082.21 846.777C1297.54 846.777 1469.01 925.391 1596.61 1082.62C1724.21 1239.84 1788.02 1446.06 1788.02 1701.27C1788.02 1859.64 1750.42 2004.9 1675.22 2137.06C1601.17 2269.22 1496.92 2372.9 1362.48 2448.1C1229.18 2522.15 1081.07 2559.18 918.143 2559.18C741.548 2559.18 583.751 2519.3 444.754 2439.55C305.757 2358.66 197.521 2243.59 120.047 2094.34C42.5729 1945.08 2.69661 1773.05 0.417969 1578.22V1347.51C0.417969 1091.16 55.1055 861.019 164.48 657.08C274.995 452.002 432.221 291.357 636.16 175.146C840.099 58.9355 1066.25 0.830078 1314.63 0.830078H1401.79ZM882.254 1287.7C805.919 1287.7 742.117 1305.35 690.848 1340.67C639.578 1375.99 601.411 1419.29 576.346 1470.56V1643.16C576.346 1957.62 685.151 2114.84 902.762 2114.84C990.49 2114.84 1063.41 2075.54 1121.51 1996.92C1180.76 1918.31 1210.38 1819.76 1210.38 1701.27C1210.38 1579.36 1180.19 1480.24 1119.8 1403.91C1060.56 1326.43 981.375 1287.7 882.254 1287.7Z" fill="black"/>
<path d="M1401.79 0.830078H1461.79V-59.1699H1401.79V0.830078ZM1401.79 453.711V513.711H1461.79V453.711H1401.79ZM844.656 609.229L880.465 657.371L880.497 657.347L880.53 657.323L844.656 609.229ZM590.018 1038.18L530.905 1027.9L498.924 1211.79L632.067 1080.98L590.018 1038.18ZM1596.61 1082.62L1550.02 1120.43L1596.61 1082.62ZM1675.22 2137.06L1623.07 2107.39L1622.98 2107.56L1622.88 2107.73L1675.22 2137.06ZM1362.48 2448.1L1391.62 2500.55L1391.69 2500.5L1391.77 2500.46L1362.48 2448.1ZM444.754 2439.55L414.575 2491.41L414.734 2491.5L414.894 2491.59L444.754 2439.55ZM0.417969 1578.22H-59.582V1578.57L-59.5779 1578.92L0.417969 1578.22ZM164.48 657.08L111.662 628.617L111.633 628.669L111.605 628.722L164.48 657.08ZM636.16 175.146L606.455 123.016L636.16 175.146ZM576.346 1470.56L522.443 1444.2L516.346 1456.68V1470.56H576.346ZM1121.51 1996.92L1073.6 1960.81L1073.43 1961.04L1073.26 1961.26L1121.51 1996.92ZM1119.8 1403.91L1072.14 1440.35L1072.44 1440.74L1072.75 1441.13L1119.8 1403.91ZM1341.79 0.830078V453.711H1461.79V0.830078H1341.79ZM1401.79 393.711H1376.15V513.711H1401.79V393.711ZM1376.15 393.711C1151.07 393.711 960.429 448.02 808.783 561.134L880.53 657.323C1006.88 563.08 1170.57 513.711 1376.15 513.711V393.711ZM808.848 561.086C657.575 673.602 565.198 830.719 530.905 1027.9L649.13 1048.46C678.639 878.786 756.021 749.933 880.465 657.371L808.848 561.086ZM632.067 1080.98C749.681 965.433 898.158 906.777 1082.21 906.777V786.777C869.768 786.777 690.12 855.725 547.968 995.383L632.067 1080.98ZM1082.21 906.777C1280.77 906.777 1434.62 978.23 1550.02 1120.43L1643.2 1044.81C1503.4 872.551 1314.3 786.777 1082.21 786.777V906.777ZM1550.02 1120.43C1666.89 1264.43 1728.02 1456.17 1728.02 1701.27H1848.02C1848.02 1435.96 1781.54 1215.26 1643.2 1044.81L1550.02 1120.43ZM1728.02 1701.27C1728.02 1849.68 1692.91 1984.65 1623.07 2107.39L1727.37 2166.73C1807.93 2025.15 1848.02 1869.59 1848.02 1701.27H1728.02ZM1622.88 2107.73C1554.33 2230.06 1458.14 2325.84 1333.19 2395.73L1391.77 2500.46C1535.7 2419.96 1648 2308.38 1727.57 2166.39L1622.88 2107.73ZM1333.34 2395.65C1209.56 2464.41 1071.59 2499.18 918.143 2499.18V2619.18C1090.54 2619.18 1248.79 2579.89 1391.62 2500.55L1333.34 2395.65ZM918.143 2499.18C750.929 2499.18 603.618 2461.53 474.614 2387.51L414.894 2491.59C563.885 2577.08 732.166 2619.18 918.143 2619.18V2499.18ZM474.933 2387.69C346.228 2312.79 245.785 2206.33 173.3 2066.69L66.7939 2121.98C149.257 2280.84 265.285 2404.53 414.575 2491.41L474.933 2387.69ZM173.3 2066.69C100.787 1927 62.6002 1764.45 60.4139 1577.52L-59.5779 1578.92C-57.207 1781.64 -15.6416 1963.17 66.7939 2121.98L173.3 2066.69ZM60.418 1578.22V1347.51H-59.582V1578.22H60.418ZM60.418 1347.51C60.418 1099.97 113.146 879.747 217.356 685.438L111.605 628.722C-2.93484 842.291 -59.582 1082.35 -59.582 1347.51H60.418ZM217.299 685.544C322.437 490.444 471.618 337.965 665.866 227.277L606.455 123.016C392.824 244.75 227.553 413.56 111.662 628.617L217.299 685.544ZM665.866 227.277C860.223 116.526 1076.04 60.8301 1314.63 60.8301V-59.1699C1056.47 -59.1699 819.975 1.34541 606.455 123.016L665.866 227.277ZM1314.63 60.8301H1401.79V-59.1699H1314.63V60.8301ZM882.254 1227.7C796.543 1227.7 720.159 1247.62 656.809 1291.26L724.886 1390.08C764.076 1363.09 815.296 1347.7 882.254 1347.7V1227.7ZM656.809 1291.26C597.84 1331.89 552.443 1382.84 522.443 1444.2L630.249 1496.91C650.379 1455.73 681.316 1420.1 724.886 1390.08L656.809 1291.26ZM516.346 1470.56V1643.16H636.346V1470.56H516.346ZM516.346 1643.16C516.346 1805.46 544.087 1937.83 608.612 2031.07C675.903 2128.31 777.418 2174.84 902.762 2174.84V2054.84C810.495 2054.84 748.801 2022.77 707.288 1962.78C663.007 1898.79 636.346 1795.32 636.346 1643.16H516.346ZM902.762 2174.84C1011.9 2174.84 1101.83 2124.49 1169.76 2032.59L1073.26 1961.26C1024.98 2026.58 969.08 2054.84 902.762 2054.84V2174.84ZM1169.43 2033.03C1238.01 1942.03 1270.38 1830.06 1270.38 1701.27H1150.38C1150.38 1809.46 1123.5 1894.59 1073.6 1960.81L1169.43 2033.03ZM1270.38 1701.27C1270.38 1569.33 1237.56 1456.06 1166.86 1366.68L1072.75 1441.13C1122.82 1504.43 1150.38 1589.39 1150.38 1701.27H1270.38ZM1167.46 1367.46C1096.65 1274.86 999.705 1227.7 882.254 1227.7V1347.7C963.045 1347.7 1024.46 1378.01 1072.14 1440.35L1167.46 1367.46Z" fill="#B91C1C"/>
</svg>
