<svg width="1794" height="2489" viewBox="0 0 1794 2489" fill="none" xmlns="http://www.w3.org/2000/svg">
<path d="M1793.16 308.336L863.477 2489H255.078L1186.47 445.055H0.439453V0.71875H1793.16V308.336Z" fill="black"/>
<path d="M1793.16 308.336L1848.36 331.867L1853.16 320.592V308.336H1793.16ZM863.477 2489V2549H903.122L918.67 2512.53L863.477 2489ZM255.078 2489L200.48 2464.12L161.801 2549H255.078V2489ZM1186.47 445.055L1241.07 469.934L1279.75 385.055H1186.47V445.055ZM0.439453 445.055H-59.5605V505.055H0.439453V445.055ZM0.439453 0.71875V-59.2812H-59.5605V0.71875H0.439453ZM1793.16 0.71875H1853.16V-59.2812H1793.16V0.71875ZM1737.97 284.805L808.283 2465.47L918.67 2512.53L1848.36 331.867L1737.97 284.805ZM863.477 2429H255.078V2549H863.477V2429ZM309.677 2513.88L1241.07 469.934L1131.88 420.175L200.48 2464.12L309.677 2513.88ZM1186.47 385.055H0.439453V505.055H1186.47V385.055ZM60.4395 445.055V0.71875H-59.5605V445.055H60.4395ZM0.439453 60.7188H1793.16V-59.2812H0.439453V60.7188ZM1733.16 0.71875V308.336H1853.16V0.71875H1733.16Z" fill="#B91C1C"/>
</svg>
