<svg width="1737" height="2560" viewBox="0 0 1737 2560" fill="none" xmlns="http://www.w3.org/2000/svg">
<path d="M1686.89 701.514C1686.89 822.282 1656.7 928.809 1596.32 1021.09C1537.07 1113.38 1455.04 1187.43 1350.22 1243.26C1468.71 1301.37 1562.71 1381.12 1632.21 1482.52C1701.71 1582.78 1736.46 1701.84 1736.46 1839.7C1736.46 2061.87 1659.55 2237.32 1505.74 2366.06C1353.07 2494.81 1142.3 2559.18 873.418 2559.18C603.398 2559.18 390.345 2494.81 234.258 2366.06C78.1706 2236.18 0.126953 2060.73 0.126953 1839.7C0.126953 1706.4 34.3066 1588.48 102.666 1485.94C171.025 1383.4 267.868 1302.51 393.193 1243.26C287.236 1187.43 204.066 1113.38 143.682 1021.09C83.2975 928.809 53.1055 822.282 53.1055 701.514C53.1055 485.042 126.592 314.144 273.564 188.818C420.537 63.4928 618.779 0.830078 868.291 0.830078C1120.08 0.830078 1319.46 63.4928 1466.44 188.818C1613.41 314.144 1686.89 485.042 1686.89 701.514ZM1158.82 1793.55C1158.82 1691.02 1132.04 1612.4 1078.5 1557.71C1026.09 1501.89 956.589 1473.97 870 1473.97C783.411 1473.97 713.343 1501.89 659.795 1557.71C606.247 1612.4 579.473 1691.02 579.473 1793.55C579.473 1892.68 606.247 1971.29 659.795 2029.39C714.482 2086.36 785.69 2114.84 873.418 2114.84C958.867 2114.84 1027.8 2086.36 1080.21 2029.39C1132.61 1972.43 1158.82 1893.82 1158.82 1793.55ZM868.291 445.166C790.817 445.166 731.572 470.801 690.557 522.07C650.68 572.201 630.742 642.269 630.742 732.275C630.742 821.143 651.25 892.92 692.266 947.607C733.281 1002.29 793.665 1029.64 873.418 1029.64C952.031 1029.64 1010.71 1002.29 1049.44 947.607C1089.32 892.92 1109.26 821.143 1109.26 732.275C1109.26 643.408 1088.75 573.34 1047.73 522.07C1007.86 470.801 948.044 445.166 868.291 445.166Z" fill="black"/>
<path d="M1596.32 1021.09L1546.11 988.242L1545.97 988.46L1545.83 988.68L1596.32 1021.09ZM1350.22 1243.26L1322.02 1190.3L1218.45 1245.47L1323.81 1297.13L1350.22 1243.26ZM1632.21 1482.52L1582.72 1516.44L1582.81 1516.57L1582.9 1516.7L1632.21 1482.52ZM1505.74 2366.06L1467.23 2320.06L1467.15 2320.13L1467.06 2320.2L1505.74 2366.06ZM234.258 2366.06L195.88 2412.19L195.98 2412.27L196.08 2412.35L234.258 2366.06ZM393.193 1243.26L418.836 1297.51L527.431 1246.17L421.162 1190.18L393.193 1243.26ZM1078.5 1557.71L1034.75 1598.78L1035.18 1599.24L1035.63 1599.69L1078.5 1557.71ZM659.795 1557.71L702.666 1599.69L702.882 1599.47L703.096 1599.25L659.795 1557.71ZM659.795 2029.39L615.674 2070.06L616.088 2070.51L616.512 2070.95L659.795 2029.39ZM1080.21 2029.39L1036.05 1988.77L1080.21 2029.39ZM690.557 522.07L643.705 484.589L643.652 484.654L643.601 484.719L690.557 522.07ZM1049.44 947.607L1000.96 912.257L1000.72 912.59L1000.48 912.926L1049.44 947.607ZM1047.73 522.07L1000.37 558.907L1000.63 559.231L1000.88 559.552L1047.73 522.07ZM1626.89 701.514C1626.89 811.767 1599.5 906.645 1546.11 988.242L1646.53 1053.95C1713.9 950.972 1746.89 832.797 1746.89 701.514H1626.89ZM1545.83 988.68C1492.59 1071.61 1418.55 1138.89 1322.02 1190.3L1378.43 1296.22C1491.54 1235.98 1581.56 1155.14 1646.81 1053.51L1545.83 988.68ZM1323.81 1297.13C1433.72 1351.03 1519.49 1424.19 1582.72 1516.44L1681.7 1448.6C1605.93 1338.05 1503.71 1251.7 1376.64 1189.39L1323.81 1297.13ZM1582.9 1516.7C1644.55 1605.65 1676.46 1712.41 1676.46 1839.7H1796.46C1796.46 1691.27 1758.86 1559.91 1681.52 1448.34L1582.9 1516.7ZM1676.46 1839.7C1676.46 2046.26 1605.85 2204.03 1467.23 2320.06L1544.25 2412.07C1713.26 2270.61 1796.46 2077.47 1796.46 1839.7H1676.46ZM1467.06 2320.2C1328.46 2437.07 1133.07 2499.18 873.418 2499.18V2619.18C1151.53 2619.18 1377.68 2552.54 1544.42 2411.93L1467.06 2320.2ZM873.418 2499.18C612.648 2499.18 414.646 2437.08 272.436 2319.78L196.08 2412.35C366.045 2552.54 594.149 2619.18 873.418 2619.18V2499.18ZM272.636 2319.94C131.568 2202.56 60.127 2044.7 60.127 1839.7H-59.873C-59.873 2076.76 24.773 2269.8 195.88 2412.19L272.636 2319.94ZM60.127 1839.7C60.127 1717.23 91.3403 1611.09 152.589 1519.22L52.743 1452.66C-22.727 1565.86 -59.873 1695.56 -59.873 1839.7H60.127ZM152.589 1519.22C214.179 1426.83 302.097 1352.69 418.836 1297.51L367.551 1189.02C233.638 1252.32 127.872 1339.96 52.743 1452.66L152.589 1519.22ZM421.162 1190.18C323.419 1138.68 248.225 1071.28 193.889 988.242L93.4744 1053.95C159.907 1155.47 251.054 1236.19 365.225 1296.34L421.162 1190.18ZM193.889 988.242C140.498 906.645 113.105 811.767 113.105 701.514H-6.89453C-6.89453 832.797 26.0966 950.972 93.4744 1053.95L193.889 988.242ZM113.105 701.514C113.105 500.232 180.602 346.941 312.495 234.474L234.634 143.163C72.5817 281.347 -6.89453 469.853 -6.89453 701.514H113.105ZM312.495 234.474C445.763 120.834 628.8 60.8301 868.291 60.8301V-59.1699C608.759 -59.1699 395.311 6.15126 234.634 143.163L312.495 234.474ZM868.291 60.8301C1110.22 60.8301 1294.33 120.913 1427.5 234.474L1505.37 143.163C1344.6 6.07224 1129.94 -59.1699 868.291 -59.1699V60.8301ZM1427.5 234.474C1559.4 346.941 1626.89 500.232 1626.89 701.514H1746.89C1746.89 469.853 1667.42 281.347 1505.37 143.163L1427.5 234.474ZM1218.82 1793.55C1218.82 1680.8 1189.21 1585.03 1121.37 1515.74L1035.63 1599.69C1074.88 1639.78 1098.82 1701.23 1098.82 1793.55H1218.82ZM1122.24 1516.65C1056.95 1447.1 970.772 1413.97 870 1413.97V1533.97C942.405 1533.97 995.22 1556.67 1034.75 1598.78L1122.24 1516.65ZM870 1413.97C769.212 1413.97 682.762 1447.09 616.494 1516.18L703.096 1599.25C743.924 1556.68 797.611 1533.97 870 1533.97V1413.97ZM616.924 1515.74C549.08 1585.03 519.473 1680.8 519.473 1793.55H639.473C639.473 1701.23 663.413 1639.78 702.666 1599.69L616.924 1515.74ZM519.473 1793.55C519.473 1903.75 549.497 1998.25 615.674 2070.06L703.916 1988.73C662.996 1944.33 639.473 1881.6 639.473 1793.55H519.473ZM616.512 2070.95C683.827 2141.07 771.351 2174.84 873.418 2174.84V2054.84C800.029 2054.84 745.138 2031.66 703.078 1987.84L616.512 2070.95ZM873.418 2174.84C973.708 2174.84 1059.34 2140.69 1124.36 2070.02L1036.05 1988.77C996.252 2032.03 944.026 2054.84 873.418 2054.84V2174.84ZM1124.36 2070.02C1189.68 1999.01 1218.82 1904.28 1218.82 1793.55H1098.82C1098.82 1883.35 1075.54 1945.84 1036.05 1988.77L1124.36 2070.02ZM868.291 385.166C776.255 385.166 698.214 416.451 643.705 484.589L737.409 559.552C764.93 525.15 805.38 505.166 868.291 505.166V385.166ZM643.601 484.719C592.441 549.033 570.742 634.096 570.742 732.275H690.742C690.742 650.441 708.919 595.368 737.513 559.422L643.601 484.719ZM570.742 732.275C570.742 830.223 593.406 915.795 644.266 983.607L740.266 911.607C709.094 870.045 690.742 812.062 690.742 732.275H570.742ZM644.266 983.607C698.596 1056.05 778.35 1089.64 873.418 1089.64V969.639C808.981 969.639 767.967 948.542 740.266 911.607L644.266 983.607ZM873.418 1089.64C967.639 1089.64 1046.36 1055.76 1098.4 982.288L1000.48 912.926C975.05 948.83 936.423 969.639 873.418 969.639V1089.64ZM1097.92 982.958C1147.32 915.211 1169.26 829.891 1169.26 732.275H1049.26C1049.26 812.394 1031.32 870.629 1000.96 912.257L1097.92 982.958ZM1169.26 732.275C1169.26 634.579 1146.69 549.719 1094.59 484.589L1000.88 559.552C1030.81 596.961 1049.26 652.237 1049.26 732.275H1169.26ZM1095.1 485.234C1041.26 416.016 961.882 385.166 868.291 385.166V505.166C934.205 505.166 974.456 525.585 1000.37 558.907L1095.1 485.234Z" fill="#B91C1C"/>
</svg>
