<svg width="1737" height="2560" viewBox="0 0 1737 2560" fill="none" xmlns="http://www.w3.org/2000/svg">
<path d="M1152.44 1562.84C1028.25 1674.5 889.254 1730.32 735.445 1730.32C509.859 1730.32 330.986 1653.99 198.824 1501.32C66.6628 1348.65 0.582031 1144.71 0.582031 889.502C0.582031 729.997 37.61 581.885 111.666 445.166C185.722 308.447 289.4 200.212 422.701 120.459C557.141 40.7064 705.253 0.830078 867.037 0.830078C1031.1 0.830078 1179.21 42.4154 1311.37 125.586C1444.67 207.617 1548.35 324.398 1622.41 475.928C1696.46 626.318 1734.63 800.065 1736.91 997.168V1217.63C1736.91 1492.2 1682.79 1730.32 1574.56 1931.98C1467.46 2133.64 1314.22 2288.59 1114.84 2396.83C915.458 2505.06 683.036 2559.18 417.574 2559.18H381.686V2097.75L491.061 2096.04C887.545 2076.68 1108 1898.94 1152.44 1562.84ZM890.963 1315.04C1016.29 1315.04 1106.29 1260.92 1160.98 1152.69V913.428C1160.98 753.923 1134.21 636.003 1080.66 559.668C1027.11 483.333 954.765 445.166 863.619 445.166C782.727 445.166 714.938 488.46 660.25 575.049C605.562 661.637 578.219 766.455 578.219 889.502C578.219 1019.38 606.132 1123.06 661.959 1200.54C717.786 1276.87 794.12 1315.04 890.963 1315.04Z" fill="black"/>
<path d="M1152.44 1562.84L1211.92 1570.71L1233.23 1409.52L1112.32 1518.22L1152.44 1562.84ZM198.824 1501.32L153.461 1540.59L198.824 1501.32ZM111.666 445.166L58.9085 416.589L111.666 445.166ZM422.701 120.459L392.089 68.8557L391.993 68.913L391.896 68.9706L422.701 120.459ZM1311.37 125.586L1279.42 176.367L1279.67 176.528L1279.93 176.685L1311.37 125.586ZM1622.41 475.928L1568.5 502.273L1568.54 502.354L1568.58 502.434L1622.41 475.928ZM1736.91 997.168H1796.91V996.821L1796.91 996.474L1736.91 997.168ZM1574.56 1931.98L1521.69 1903.61L1521.63 1903.72L1521.57 1903.84L1574.56 1931.98ZM1114.84 2396.83L1143.47 2449.56L1114.84 2396.83ZM381.686 2559.18H321.686V2619.18H381.686V2559.18ZM381.686 2097.75L380.748 2037.76L321.686 2038.68V2097.75H381.686ZM491.061 2096.04L491.998 2156.04L492.994 2156.02L493.988 2155.97L491.061 2096.04ZM1160.98 1152.69L1214.53 1179.74L1220.98 1166.98V1152.69H1160.98ZM661.959 1200.54L613.281 1235.61L613.404 1235.79L613.529 1235.96L661.959 1200.54ZM1112.32 1518.22C998.126 1620.9 873.119 1670.32 735.445 1670.32V1790.32C905.389 1790.32 1058.38 1728.09 1192.55 1607.46L1112.32 1518.22ZM735.445 1670.32C524.987 1670.32 363.537 1599.92 244.188 1462.05L153.461 1540.59C298.434 1708.06 494.732 1790.32 735.445 1790.32V1670.32ZM244.188 1462.05C123.751 1322.92 60.582 1134.21 60.582 889.502H-59.418C-59.418 1155.21 9.57485 1374.38 153.461 1540.59L244.188 1462.05ZM60.582 889.502C60.582 739.708 95.247 601.454 164.424 473.743L58.9085 416.589C-20.0269 562.316 -59.418 720.285 -59.418 889.502H60.582ZM164.424 473.743C233.356 346.483 329.456 246.166 453.506 171.947L391.896 68.9706C249.345 154.258 138.088 270.411 58.9085 416.589L164.424 473.743ZM453.313 172.062C578.155 98.0038 715.632 60.8301 867.037 60.8301V-59.1699C694.875 -59.1699 536.128 -16.591 392.089 68.8557L453.313 172.062ZM867.037 60.8301C1020.39 60.8301 1157.32 99.5317 1279.42 176.367L1343.33 74.8047C1201.1 -14.701 1041.81 -59.1699 867.037 -59.1699V60.8301ZM1279.93 176.685C1402.79 252.296 1499.03 360.13 1568.5 502.273L1676.31 449.582C1597.67 288.665 1486.55 162.939 1342.82 74.4864L1279.93 176.685ZM1568.58 502.434C1638.04 643.494 1674.72 808.151 1676.91 997.862L1796.91 996.474C1794.54 791.979 1754.89 609.142 1676.24 449.422L1568.58 502.434ZM1676.91 997.168V1217.63H1796.91V997.168H1676.91ZM1676.91 1217.63C1676.91 1484.27 1624.39 1712.26 1521.69 1903.61L1627.42 1960.36C1741.19 1748.39 1796.91 1500.14 1796.91 1217.63H1676.91ZM1521.57 1903.84C1419.96 2095.16 1275.16 2241.52 1086.21 2344.09L1143.47 2449.56C1353.28 2335.66 1514.96 2172.12 1627.55 1960.12L1521.57 1903.84ZM1086.21 2344.09C897.007 2446.81 674.745 2499.18 417.574 2499.18V2619.18C691.328 2619.18 933.91 2563.32 1143.47 2449.56L1086.21 2344.09ZM417.574 2499.18H381.686V2619.18H417.574V2499.18ZM441.686 2559.18V2097.75H321.686V2559.18H441.686ZM382.623 2157.75L491.998 2156.04L490.123 2036.05L380.748 2037.76L382.623 2157.75ZM493.988 2155.97C699.961 2145.91 868.045 2094.4 991.426 1994.93C1115.95 1894.54 1188.11 1750.82 1211.92 1570.71L1092.96 1554.98C1072.33 1710.96 1012.05 1824.16 916.11 1901.51C819.032 1979.77 678.645 2026.81 488.133 2036.12L493.988 2155.97ZM890.963 1375.04C962.4 1375.04 1027.38 1359.54 1083.38 1325.87C1139.5 1292.13 1182.9 1242.36 1214.53 1179.74L1107.43 1125.63C1084.38 1171.25 1055.43 1202.65 1021.54 1223.03C987.54 1243.48 944.851 1255.04 890.963 1255.04V1375.04ZM1220.98 1152.69V913.428H1100.98V1152.69H1220.98ZM1220.98 913.428C1220.98 749.419 1193.86 616.565 1129.78 525.211L1031.54 594.125C1074.55 655.44 1100.98 758.426 1100.98 913.428H1220.98ZM1129.78 525.211C1065.31 433.305 974.853 385.166 863.619 385.166V505.166C934.677 505.166 988.916 533.362 1031.54 594.125L1129.78 525.211ZM863.619 385.166C756.588 385.166 671.867 444.294 609.521 543.009L710.979 607.088C758.008 532.626 808.867 505.166 863.619 505.166V385.166ZM609.521 543.009C547.654 640.966 518.219 757.419 518.219 889.502H638.219C638.219 775.491 663.471 682.309 710.979 607.088L609.521 543.009ZM518.219 889.502C518.219 1027.52 547.86 1144.83 613.281 1235.61L710.637 1165.46C664.405 1101.3 638.219 1011.24 638.219 889.502H518.219ZM613.529 1235.96C680.971 1328.17 775.524 1375.04 890.963 1375.04V1255.04C812.717 1255.04 754.6 1225.57 710.389 1165.12L613.529 1235.96Z" fill="#B91C1C"/>
</svg>
